<!--?xml version="1.0" encoding="utf-8"?-->
<!-- Generator: Adobe Illustrator 15.0.0, SVG Export Plug-In . SVG Version: 6.00 Build 0)  -->

<svg xmlns="http://www.w3.org/2000/svg" xmlns:xlink="http://www.w3.org/1999/xlink" width="500px" height="500px" viewBox="0 0 500 500">
<path fill-rule="evenodd" clip-rule="evenodd" fill="#8A5E3C" d="M84.813,96.674c14.776-12.799,30.229-24.149,46.66-35.794
	c5.238-3.712,10.05-8.94,16.619-10.866c-5.137,27.674-11.548,54.075-16.619,81.815c-3.538,0.084-2.353,4.891-3.196,7.67
	c-4.848-0.036-13.6-5.006-16.619-0.639c3.388,3.217,10.936,2.274,15.979,3.835c-1.017,4.097-2.306,7.921-2.557,12.784
	c-5.516,0.114-12.942-4.427-17.258-1.278c0.461,3.889,11.228,2.769,15.979,4.474c-0.28,5.26-2.021,9.059-2.557,14.062
	c-6.671,0.061-13.132-3.48-19.176-1.917c-0.289,3.825,4.89,3.321,7.67,3.835c3.333,0.616,7.173,1.165,10.227,1.278
	c0.653,2.956-1.653,8.021-1.917,12.145c-6.934-0.528-14.619-3.699-21.093-2.557c0.121,4.388,6.294,3.282,9.588,3.835
	c3.953,0.664,7.598,1.813,10.866,1.917c-1.062,3.626-1.629,7.745-2.557,11.505c-4.988-0.281-14.777-4.739-17.258-1.278
	c2.075,4.075,11.503,2.37,16.619,4.474c-0.707,4.832-2.337,8.742-2.557,14.062c-5.943,0.76-14.05-4.863-17.258-0.639
	c3.103,3.502,10.607,2.602,15.979,3.835c-0.53,4.796-1.664,8.99-2.557,13.422c-5.664,0.48-14.104-4.808-17.258-0.639
	c3.333,3.485,10.866,2.77,16.619,3.835c-1.168,4.798-1.877,10.054-3.196,14.701c-4.832-0.715-11.298-3.181-15.979-1.917
	c1.147,5.67,10.656,2.979,15.34,5.113c0.156,3.494-3.17,8.395-0.639,10.227c-4.559,24.63-10.441,47.938-14.701,72.866
	c-0.213,0-0.426,0-0.639,0c-5.885-1.206-7.927-7.736-10.866-12.145C55.92,297.83,34.171,261.341,29.205,214.923
	c0-5.327,0-10.653,0-15.979c4.045-37.076,19.673-62.568,38.351-85.011C73.574,108.446,79.327,102.693,84.813,96.674z" id="path-0" style="position: relative;"></path>
<path fill-rule="evenodd" clip-rule="evenodd" d="M317.475,306.325c5.436-5.31,10.666-13.876,15.979-20.453
	c5.161-6.389,10.333-13.244,16.619-18.537c6.073,7.776,7.047,20.651,8.309,33.238c0,4.048,0,8.096,0,12.144
	c-0.558,6.661-1.364,15.45-3.195,22.372c-1.493,5.641-3.069,12.846-8.948,13.423c-10.509-12.929-18.488-28.387-28.764-41.547
	C317.475,306.752,317.475,306.538,317.475,306.325z" id="path-1" style="position: relative;"></path>
<path fill-rule="evenodd" clip-rule="evenodd" fill="#D3CCCB" d="M88.648,340.841c6.625-2.438,25.526-16.695,34.516-23.649
	c5.244-4.056,12.256-7.94,12.145-13.423c0,2.557,0,5.113,0,7.67c-1.463,1.095-0.234,4.88-0.639,7.031
	c-2.219-2.815-7.189,2.45-11.505,5.753c-6.291,4.813-22.78,19.522-29.402,19.814c-2.424,0.106-5.362-0.057-6.392-3.196
	c0.213,0,0.426,0,0.639,0C88.222,340.841,88.435,340.841,88.648,340.841z" id="path-2" style="position: relative;"></path>
<path fill-rule="evenodd" clip-rule="evenodd" d="M138.504,338.284c-0.54-2.67,1.242-3.019,1.278-5.113
	c17.078,3.803,32.598,9.162,49.856,12.784c1.311,17.651,2.694,35.23,4.475,52.412c-2.641,0.556-4.391,2.002-7.031,2.557
	c-2.475,0.345-2.633-1.629-4.475-1.917c-1.352-0.778-1.855-2.405-3.835-2.557c-2.322-2.791-5.623-4.604-8.31-7.031
	c-3.812-4.339-8.025-8.533-11.505-11.505C150.3,366.544,143.508,353.309,138.504,338.284z" id="path-3" style="position: relative;"></path>
<path fill-rule="evenodd" clip-rule="evenodd" d="M242.69,418.821c-8.175-1.239-0.864-8.816,2.558-14.063
	c6.349-9.735,15.663-22.817,20.453-31.319c16,4.88,32.57,9.189,48.578,14.062c0,2.557,0,5.113,0,7.671
	c-15.645,13.545-36.64,21.739-63.918,23.649C247.805,418.821,245.248,418.821,242.69,418.821z" id="path-4" style="position: relative;"></path>
<path fill-rule="evenodd" clip-rule="evenodd" fill="#D3CCCB" d="M138.504,338.284c5.003,15.024,11.795,28.26,20.454,39.63
	c1.233,2.602,3.547,4.123,5.113,6.392c22.522,23.221,48.6,42.756,95.238,39.629c38.699-2.595,66.323-23.715,83.093-47.938
	c6.099-8.808,10.583-18.014,15.341-28.763c0.544-0.118,0.603,0.249,0.639,0.639c2.519,2.169,5.022,4.353,7.031,7.031
	c-2.303-1.319-3.449-3.795-5.753-5.113c-19.527,41.858-53.839,80.623-116.97,76.701C186.971,423.03,151.207,385.938,138.504,338.284
	z" id="path-5" style="position: relative;"></path>
<path fill-rule="evenodd" clip-rule="evenodd" fill="#D3CCCB" d="M371.166,358.738c12.32,6.96,23.609,12.076,43.464,10.227
	c30.136-2.808,54.641-28.365,56.888-57.526c1.038-13.484-2.03-25.088-8.949-37.711c8.513,10.54,13.56,24.206,12.784,39.629
	c-1.802,35.819-34.957,63.355-71.589,59.443C393.147,371.666,379.544,366.619,371.166,358.738z" id="path-6" style="position: relative;"></path>
<path fill-rule="evenodd" clip-rule="evenodd" fill="#D3CCCB" d="M447.229,103.066c28.893,31.163,35.678,96.498,15.34,140.62
	c-3.389,7.352-9.705,12.828-6.392,20.454c0.121,0.518,0.642,0.637,0.64,1.278c-2.492-2.716-7.809-5.699-7.671-8.948
	c11.567-19.326,20.685-41.104,21.732-70.949c1.061-1.311,1.061-6.999,0-8.31C469.651,145.839,459.567,123.326,447.229,103.066z" id="path-7" style="position: relative;"></path>
<path fill-rule="evenodd" clip-rule="evenodd" d="M228.629,73.025c23.256-19.143,51.095-33.703,92.042-35.155
	c2.13,0,4.261,0,6.392,0c58.842,2.944,93.982,29.593,120.166,65.196c12.339,20.26,22.423,42.773,23.649,74.145c0,2.77,0,5.54,0,8.31
	c-1.048,29.846-10.165,51.623-21.732,70.949c-0.92,0.715-1.56,0.688-1.917-0.64c8.348-12.105,14.473-26.434,18.536-42.825
	c-27.627-9.659-56.778-17.792-85.65-26.206c-8.527,21.088-15.247,43.984-18.536,70.31c-1.046,1.938-0.5,5.466-2.557,6.392
	c-0.622-0.018-0.496-0.782-0.64-1.278c3.556-28.19,10.886-52.606,19.176-76.062c-13.558-5.192-28.723-8.776-42.825-13.423
	c-5.332,14.695-9.687,30.369-14.062,46.021c-0.749,0.103-0.539,1.166-0.64,1.917c-1.124-0.154-1.457-1.1-1.278-2.557
	c5.043-14.772,9.095-30.535,14.063-45.382c-18.077-6.852-38.317-11.539-56.888-17.897c-4.179,13.292-7.178,27.764-12.145,40.268
	c15.148,3.814,29.983,7.942,41.547,15.34c3.445,3.16,7.305,5.906,11.506,8.31c0.709,2.486,4.029,2.362,4.474,5.113
	c-0.569,4.118-1.507,7.868-1.917,12.145c-17.984,3.535-35.305,7.734-53.053,11.505c-9.761-14.102-16.594-31.131-24.928-46.66
	c0.498-2.911,3.452-3.366,4.475-5.753c0.543,0.118,0.603-0.249,0.639-0.639c5.611-0.497,9.29,0.938,14.701,0.639
	c5.131-12.34,8.355-26.587,12.145-40.268c-26.453-9.127-54.1-17.063-81.814-24.928c-4.487,11.066-7.9,23.207-8.31,38.351
	c-1.064,4.695-1.064,13.841,0,18.536c-0.123,8.645,1.585,15.459,3.196,22.371c0,0.426,0,0.853,0,1.278
	c1.518,2.53,5.916,2.18,7.67,4.475c0,0.639,0,1.278,0,1.917c-1.463,1.094-0.234,4.879-0.64,7.031c0,2.557,0,5.113,0,7.67
	c-1.462,1.094-0.234,4.878-0.64,7.031c0,2.344,0,4.688,0,7.031c-1.462,1.094-0.234,4.879-0.639,7.031c0,2.557,0,5.113,0,7.67
	c-1.467,1.303-0.231,5.308-0.639,7.67c0,0.213,0,0.426,0,0.64c-17.564,3.742-33.344,9.268-51.135,12.783
	c0.18-1.032-0.604-1.101-0.639-1.918c-2.08-7.406,2.197-14.976,5.114-21.093c8.965-18.803,23.579-34.915,40.268-46.021
	c-1.354-8.446-3.165-16.436-3.834-25.567c0-6.179,0-12.357,0-18.536c1.402-17.986,5.643-33.133,11.504-46.66
	c0.035-0.817,0.82-0.885,0.64-1.918c6.119-11.778,12.916-22.878,21.093-32.598C219.105,82.251,223.635,77.406,228.629,73.025z
	 M316.196,39.787c-12.723,0.274-23.715,2.278-33.237,5.753c5.265,1.127,2.081,10.703,3.835,15.34c0,7.883,0,15.766,0,23.649
	c-1.479,25.154-6.159,47.106-10.866,69.032c19.424,5.505,38.367,11.489,57.526,17.258c11.999-41.693,25.035-82.347,37.072-124.001
	c-11.916-3.424-23.781-6.899-38.989-7.031C327.903,38.724,319.829,38.724,316.196,39.787z M284.237,61.52
	c0.293-6.045-0.781-10.724-1.278-15.979c-44.373,13.367-74.221,41.257-90.764,82.454c27.261,8.107,53.736,17,81.815,24.289
	c4.074-17.871,8.413-35.477,9.588-56.248c1.457-0.886,0.238-4.449,0.639-6.392c0-0.853,0-1.705,0-2.557
	C285.302,80.051,285.302,68.555,284.237,61.52z M424.218,78.777c-14.54-13.371-31.547-24.275-52.413-31.32
	c-11.851,41.84-24.897,82.484-37.072,124.001c14.954,3.795,28.834,8.665,43.465,12.784c12.226-36.989,31.58-70.854,53.052-96.517
	c0.552-0.659,0.538-1.27,0-1.917C429.173,83.197,426.829,80.854,424.218,78.777z M468.96,174.015
	c-2.283-38.624-17.068-64.747-36.433-86.29c-22.278,27.364-39.361,59.925-51.773,97.156c28.398,8.674,56.417,17.727,85.649,25.567
	c1.126-6.757,2.756-13.011,2.557-21.093C470.024,185.723,470.024,177.648,468.96,174.015z" id="path-8" style="position: relative;"></path>
<path fill-rule="evenodd" clip-rule="evenodd" fill="#F59321" d="M468.96,189.355c0.199,8.082-1.431,14.335-2.557,21.093
	c-29.232-7.84-57.251-16.893-85.649-25.567c12.412-37.23,29.495-69.792,51.773-97.156c19.364,21.543,34.149,47.666,36.433,86.29
	C468.96,179.128,468.96,184.242,468.96,189.355z" id="path-9" style="position: relative;"></path>
<path fill-rule="evenodd" clip-rule="evenodd" fill="#8A5E3C" d="M320.671,218.758c0.146,4.227,6.464,7.428,10.227,11.505
	c9.985,10.82,18.166,23.126,24.289,37.072c1.654-0.902,3.048-2.065,2.557-5.113c0.213,0,0.426,0,0.639,0
	c0.144,0.496,0.018,1.261,0.64,1.278c2.057-0.926,1.511-4.454,2.557-6.392c0,1.065,0,2.131,0,3.196
	c10.637-9.497,29.749-19.234,52.413-17.258c13.368,1.166,23.994,7.551,33.237,12.783c0.357,1.328,0.997,1.354,1.917,0.64
	c-0.138,3.249,5.179,6.232,7.671,8.948c1.528,3.158,4.064,5.31,5.752,8.31c6.919,12.623,9.987,24.227,8.949,37.711
	c-2.247,29.161-26.752,54.719-56.888,57.526c-19.854,1.85-31.144-3.267-43.464-10.227c-2.084-1.112-3.199-3.192-5.753-3.835
	c-2.009-2.679-4.513-4.862-7.031-7.031c0.749-0.104,0.54-1.165,0.64-1.917c0.84,0.226,1.006,1.125,1.918,1.278
	c14.47,23.39,69,26.41,87.567,4.474c1.887-1.749,5.991-4.643,5.753-6.392c-1.652-2.184-4.466-3.204-6.393-5.113
	c-2.391-0.093-3.305,3.406-5.113,1.917c0.505-1.413,2.235-1.6,3.196-2.557c-3.272-3.332-8.018-5.192-11.506-8.309
	c-2.271,0.072-2.323,2.363-5.113,1.917c0.466-1.452,1.924-1.912,3.196-2.557c-4.692-2.883-9.971-9.415-16.619-6.392
	c-0.44-1.719,1.321-1.235,1.918-1.918c-5.162-3.938-14.129-7.878-19.814-2.557c0.142-2.415,3.286-1.827,3.835-3.835
	c-1.531-0.387-2.916-0.919-5.113-0.639c-1.312-1.062-6.999-1.062-8.31,0c-1.231,2.391-1.521,5.724-4.475,6.392
	c0.758-2.438,2.341-4.052,3.196-6.392c-3.393-0.611-9.882,1.188-13.423,2.557c-0.949,1.182-1.225,3.036-1.278,5.113
	c-3.022-0.111,0.229-2.528-0.64-4.475c-2.557,0.426-4.38,1.586-6.392,2.557c-1.744-0.466-1.286,1.271-2.557,1.278
	c-0.096-0.852,2.599-1.929,0.64-2.557c0.145-0.921,1.907-0.223,1.917-1.278c2.617-0.152,3.601-1.939,6.392-1.917
	c0.99-6.405-4.54-9.401-4.474-12.784c3.367,2.599,5.639,6.293,5.752,12.145c4.121-1.205,8.027-2.626,13.423-2.557
	c4.448-2.104-0.424-9.131,0.64-11.505c1.887,2.141,2.849,7.232,1.917,10.227c4.44,1.1,9.834,1.245,14.701,1.917
	c2.247-2.014,3.938-4.585,3.836-8.948c0.693-0.158,0.433-1.271,1.278-1.278c-0.001,1.065,0,2.131,0,3.196
	c-0.659,2.75-1.598,5.221-3.196,7.03c3.618,2.986,9.87,3.34,13.423,6.393c5.521-1.297,5.227-8.409,8.31-12.145
	c-0.451,5.728-2.567,9.791-5.753,12.783c3.512,3.094,8.333,4.877,12.145,7.67c4.981-1.196,4.127-8.23,7.031-11.505
	c-0.131,5.622-2.241,9.265-5.114,12.145c3.083,3.522,7.787,5.423,11.506,8.31c5.164-1.015,4.229-8.128,7.031-11.506
	c0.383,10.245-10.011,12.675,1.278,17.258c19.143-15.442,17.176-61.398-0.64-76.701c-1.863-2.398-3.993-4.529-6.392-6.392
	c-15.874-19.324-64.743-20.119-81.815-1.278c4.128,3.968,9.948,6.244,14.701,9.588c1.888-1.521,2.027-4.792,2.557-7.671
	c1.861,2.32-0.216,6.151-0.639,8.31c2.468,2.433,6.373,3.427,8.948,5.753c4.842-1.551,5.915-6.869,7.031-12.145
	c2.024,5.23-2.023,9.9-4.475,12.783c3.931,2.675,9.355,3.854,14.063,5.753c3.9-1.639,2.955-8.123,5.752-10.866
	c0.092,4.778-1.776,7.599-3.195,10.866c3.303,1.698,11.266,1.806,15.34,0.639c2.858-0.338,0.451-5.939,3.196-6.392
	c0.439,2.57-0.612,3.649-0.64,5.753c4.242,0.186,11.271-2.358,15.341-4.475c-0.921-2.274-0.978-5.415-2.557-7.03
	c2.169-1.502,3.331,3.464,3.195,6.392c5.207-0.209,8.783-5.159,12.784-4.475c-3.063,3.543-8.302,4.908-12.784,7.031
	c0.048,4.522-1.806,7.143-3.195,10.227c-2.769-1.866,2.545-5.13,1.917-8.948c-3.795,0.049-9.908,3.295-15.34,3.835
	c-2.958,2.665-6.303,8.072-10.228,7.67c2.365-2.535,5.926-3.875,7.671-7.03c-7.569,0.741-18.44-3.179-23.011,2.557
	c0.283-2.486,2.922-2.617,4.475-3.836c-4.497-2.321-10.316-3.319-14.063-6.392c-1.96,0.339-3.363,3.349-5.113,1.918
	c0.442-1.263,1.705-1.704,3.195-1.918c-2.146-2.753-6.737-3.063-8.948-5.752c-3.742,1.054-5.763,6.872-9.588,5.752
	c2.457-2.018,5.34-3.608,7.031-6.392c-4.02-4.29-10.951-5.668-14.701-10.227c-2.819,2.507-5.877,4.776-7.67,8.31
	c-0.518,0.121-0.638,0.641-1.278,0.639c-0.578-2.139-1.43-0.558-2.557,0c-0.213,0-0.427,0-0.64,0
	c-6.735-18.624-17.963-36.147-31.959-45.382c-0.444-2.751-3.765-2.627-4.474-5.113c0.002-0.641-0.518-0.761-0.64-1.278
	c1.304,0.356,1.254,1.923,2.557,0.639c-0.179,1.457,0.154,2.403,1.278,2.557C320.132,219.923,319.922,218.861,320.671,218.758z" id="path-10" style="position: relative;"></path>
<path fill-rule="evenodd" clip-rule="evenodd" fill="#D3CCCB" d="M362.856,322.305c1.271-0.008,0.813-1.744,2.557-1.278
	c-1.114,8.437-5.179,20.146-4.474,26.207c-0.912-0.153-1.078-1.053-1.918-1.278c0.466-1.744-1.271-1.287-1.278-2.558
	c1.9-4.704,1.45-11.759,4.475-15.34C362.638,325.762,360.157,323.105,362.856,322.305z" id="path-11" style="position: relative;"></path>
<path fill-rule="evenodd" clip-rule="evenodd" fill="#D3CCCB" d="M356.465,269.253c0.641,0.002,0.761-0.518,1.278-0.639
	c3.334,12.707,9.446,31.385,7.031,49.855c0.213,0,0.426,0,0.639,0c-0.01,1.056-1.772,0.357-1.917,1.278c-0.214,0-0.427,0-0.64,0
	c-1.071-14.482-0.896-30.21-5.753-40.907C356.797,275.063,354.113,272.158,356.465,269.253z" id="path-12" style="position: relative;"></path>
<path fill-rule="evenodd" clip-rule="evenodd" d="M293.186,305.687c-12.13,14.289-22.651,30.187-34.516,44.742
	c-15.109-6.409-32.542-10.496-48.578-15.979c1.029-17.508,3.598-36.884,2.558-54.33c16.321-3.944,34.343-11.659,51.134-17.258
	c0.427,0,0.853,0,1.278,0c9.112,14.324,17.933,28.941,28.124,42.186C293.186,305.26,293.186,305.474,293.186,305.687z" id="path-13" style="position: relative;"></path>
<path fill-rule="evenodd" clip-rule="evenodd" fill="#473A2D" d="M208.814,413.708c14.203,4.353,28.916,7.494,46.66,6.392
	c51.494-3.199,85.392-37.911,99.712-79.259c1.126,0.579,1.056,2.354,2.557,2.557c0.008,1.271,1.744,0.813,1.278,2.558
	c-0.1,0.752,0.109,1.813-0.64,1.917c-0.036-0.39-0.095-0.757-0.639-0.639c-0.358-0.921-0.997-1.561-1.918-1.918
	c-14.618,42.161-55.016,80.272-112.495,76.701C230.77,421.236,218.631,418.385,208.814,413.708z" id="path-14" style="position: relative;"></path>
<path fill-rule="evenodd" clip-rule="evenodd" fill="#8A5E3C" d="M164.071,384.306c2.398,1.026,4.529,5.677,6.392,5.113
	c2.687,2.428,5.987,4.24,8.31,7.031c-1.101,1.049,4.721,5.269,3.835,2.557c1.842,0.288,2,2.262,4.475,1.917
	c-2.592,2.2,4.911,3.554,6.392,5.753c1.857,1.779,6.104,4.529,8.31,3.835c2.083,1.326,5.095,1.724,7.031,3.196
	c9.816,4.677,21.955,7.528,34.516,8.309c57.479,3.571,97.877-34.54,112.495-76.701c0.921,0.357,1.56,0.997,1.918,1.918
	c-4.758,10.749-9.242,19.955-15.341,28.763c-16.77,24.224-44.394,45.344-83.093,47.938
	C212.671,427.062,186.594,407.526,164.071,384.306z" id="path-15" style="position: relative;"></path>
<path fill-rule="evenodd" clip-rule="evenodd" fill="#F59321" d="M331.537,39.787c15.208,0.132,27.073,3.607,38.989,7.031
	c-12.037,41.654-25.073,82.308-37.072,124.001c-19.159-5.769-38.103-11.753-57.526-17.258c4.707-21.926,9.388-43.878,10.866-69.032
	c1.064-6.396,1.064-17.253,0-23.649c-1.754-4.638,1.43-14.213-3.835-15.34c9.522-3.475,20.515-5.479,33.237-5.753
	C321.31,39.787,326.423,39.787,331.537,39.787z" id="path-16" style="position: relative;"></path>
<path fill-rule="evenodd" clip-rule="evenodd" fill="#F59321" d="M431.249,85.808c0.538,0.648,0.552,1.258,0,1.917
	c-21.472,25.662-40.826,59.527-53.052,96.517c-14.631-4.119-28.511-8.989-43.465-12.784c12.175-41.517,25.222-82.161,37.072-124.001
	c20.866,7.045,37.873,17.949,52.413,31.32C426.294,81.388,428.638,83.732,431.249,85.808z" id="path-17" style="position: relative;"></path>
<path fill-rule="evenodd" clip-rule="evenodd" fill="#8A5E3C" d="M192.834,121.603c-5.861,13.527-10.102,28.674-11.504,46.66
	c-1.064,4.695-1.064,13.841,0,18.536c0.669,9.131,2.479,17.121,3.834,25.567c-16.688,11.106-31.303,27.218-40.268,46.021
	c-2.917,6.117-7.194,13.687-5.114,21.093c-2.491,1.26-4.008,10.492-4.474,16.619c-0.207,2.721,0.157,5.212,0,7.67
	c0.112,5.482-6.901,9.367-12.145,13.423c-8.99,6.954-27.89,21.212-34.516,23.649c5.199-24.203,10.09-48.714,15.34-72.866
	c3.278-0.982,2.194-6.328,3.196-9.588c5.211-0.327,13.78,4.827,16.619,0.64c-3.009-3.383-10.526-2.258-15.34-3.835
	c0.219-5.32,1.849-9.23,2.557-14.063c5.567-0.935,12.962,4.547,15.979,0c-3.215-2.75-9.516-2.415-14.701-3.195
	c-0.881-3.586,2.01-8.535,1.917-13.423c5.746-0.968,12.212,3.859,15.979,0.639c-0.004-3.931-10.731-2.405-14.701-4.474
	c0.324-5.216,2.233-8.846,2.557-14.062c5.428,0.538,10.077,1.854,15.34,2.557c0-0.852,0-1.704,0-2.557
	c-3.314-2.651-9.7-2.231-14.701-3.196c1.064-3.624,1.884-7.491,2.557-11.505c3.839,0.636,7.236,1.713,11.505,1.917
	c0.813-6.14-7.33-3.323-10.866-5.113c0.866-3.821,1.69-7.684,2.557-11.505c4.926,0.187,8.65,1.576,13.423,1.917
	c0.296-6.262-8.2-3.731-12.784-5.113c0.928-5.038,1.944-9.987,3.196-14.701c4.703,0.209,12.11,3.772,15.34,1.278
	c-1.668-4.724-10.204-2.579-14.701-4.474c0.751-4.362,1.623-8.604,2.557-12.784c5.3-0.239,13.658,4.705,16.619,0.639
	c-3.256-3.348-10.761-2.449-15.979-3.835c-0.086-2.263,3.11-7.187,0-8.31c6.088-26.723,11.258-54.364,17.258-81.176
	c6.606,8.308,11.858,17.97,17.897,26.846c9.166,14.271,17.288,29.585,24.928,45.382C192.338,122.385,192.213,121.62,192.834,121.603
	z" id="path-18" style="position: relative;"></path>
<path fill-rule="evenodd" clip-rule="evenodd" fill="#F59321" d="M283.599,96.035c-1.175,20.771-5.514,38.377-9.588,56.248
	c-28.079-7.29-54.555-16.182-81.815-24.289c16.543-41.197,46.391-69.087,90.764-82.454c0.497,5.255,1.571,9.934,1.278,15.979
	c0,8.522,0,17.045,0,25.567c0,0.853,0,1.705,0,2.557C282.78,90.529,283.999,94.092,283.599,96.035z" id="path-19" style="position: relative;"></path>
<path fill-rule="evenodd" clip-rule="evenodd" fill="#F59321" d="M320.671,218.758c4.375-15.652,8.729-31.326,14.062-46.021
	c14.103,4.647,29.268,8.231,42.825,13.423c-8.29,23.456-15.62,47.872-19.176,76.062c-0.213,0-0.426,0-0.639,0
	c0.491,3.048-0.902,4.211-2.557,5.113c-6.123-13.945-14.304-26.252-24.289-37.072C327.135,226.186,320.816,222.984,320.671,218.758z
	" id="path-20" style="position: relative;"></path>
<path fill-rule="evenodd" clip-rule="evenodd" fill="#F59321" d="M183.247,168.263c0.409-15.144,3.822-27.285,8.31-38.351
	c27.715,7.865,55.361,15.801,81.814,24.928c-3.789,13.681-7.014,27.928-12.145,40.268c-5.411,0.298-9.09-1.136-14.701-0.639
	c-6.953-0.136-13.365,0.27-18.535,1.917c-0.214,0-0.427,0-0.64,0c-6.343,0.689-11.833,2.229-16.619,4.475
	c-9.466,1.826-15.332,7.252-23.649,10.227c0.055-0.907,0.105-1.81-0.639-1.917c-1.611-6.912-3.319-13.726-3.196-22.371
	C183.247,180.62,183.247,174.441,183.247,168.263z" id="path-21" style="position: relative;"></path>
<path fill-rule="evenodd" clip-rule="evenodd" fill="#F59321" d="M305.33,210.448c-11.563-7.398-26.398-11.526-41.547-15.34
	c4.967-12.504,7.966-26.976,12.145-40.268c18.57,6.358,38.811,11.045,56.888,17.897c-4.968,14.847-9.02,30.61-14.063,45.382
	c-1.303,1.284-1.253-0.283-2.557-0.639C312.678,215.033,309.476,212.269,305.33,210.448z" id="path-22" style="position: relative;"></path>
<path fill-rule="evenodd" clip-rule="evenodd" fill="#FFFFFF" d="M102.71,267.975c-2.531-1.832,0.795-6.732,0.639-10.227
	c-4.684-2.135-14.193,0.557-15.34-5.113c4.682-1.264,11.147,1.202,15.979,1.917c1.318-4.647,2.027-9.903,3.196-14.701
	c-5.752-1.065-13.286-0.35-16.619-3.835c3.153-4.169,11.594,1.119,17.258,0.639c0.893-4.433,2.026-8.626,2.557-13.422
	c-5.372-1.233-12.876-0.333-15.979-3.835c3.208-4.224,11.314,1.399,17.258,0.639c0.219-5.32,1.85-9.23,2.557-14.062
	c-5.116-2.104-14.543-0.399-16.619-4.474c2.481-3.461,12.27,0.998,17.258,1.278c0.927-3.76,1.495-7.879,2.557-11.505
	c-3.268-0.104-6.913-1.254-10.866-1.917c-3.294-0.553-9.467,0.553-9.588-3.835c6.475-1.143,14.159,2.029,21.093,2.557
	c0.264-4.123,2.57-9.188,1.917-12.145c-3.054-0.114-6.894-0.662-10.227-1.278c-2.781-0.514-7.959-0.01-7.67-3.835
	c6.044-1.563,12.504,1.979,19.176,1.917c0.536-5.003,2.277-8.802,2.557-14.062c-4.752-1.706-15.519-0.585-15.979-4.474
	c4.316-3.149,11.742,1.393,17.258,1.278c0.25-4.863,1.54-8.687,2.557-12.784c-5.044-1.561-12.592-0.618-15.979-3.835
	c3.019-4.367,11.771,0.604,16.619,0.639c0.843-2.779-0.342-7.586,3.196-7.67c0.213,0,0.426,0,0.639,0c3.11,1.123-0.086,6.047,0,8.31
	c5.219,1.386,12.724,0.487,15.979,3.835c-2.961,4.065-11.318-0.878-16.619-0.639c-0.934,4.179-1.805,8.421-2.557,12.784
	c4.497,1.895,13.033-0.25,14.701,4.474c-3.229,2.494-10.637-1.069-15.34-1.278c-1.251,4.714-2.268,9.663-3.196,14.701
	c4.583,1.382,13.08-1.148,12.784,5.113c-4.772-0.341-8.497-1.73-13.423-1.917c-0.866,3.821-1.691,7.684-2.557,11.505
	c3.536,1.791,11.679-1.026,10.866,5.113c-4.269-0.205-7.666-1.282-11.505-1.917c-0.673,4.015-1.493,7.882-2.557,11.505
	c5,0.965,11.386,0.545,14.701,3.196c0,0.853,0,1.705,0,2.557c-5.263-0.703-9.912-2.019-15.34-2.557
	c-0.324,5.216-2.233,8.846-2.557,14.062c3.97,2.069,14.697,0.543,14.701,4.474c-3.768,3.22-10.233-1.607-15.979-0.639
	c0.092,4.888-2.798,9.837-1.917,13.423c5.185,0.78,11.486,0.445,14.701,3.195c-3.017,4.547-10.413-0.935-15.979,0
	c-0.708,4.832-2.337,8.742-2.557,14.063c4.814,1.577,12.331,0.452,15.34,3.835c-2.839,4.188-11.407-0.967-16.619-0.64
	c-1.001,3.26,0.083,8.605-3.196,9.588C103.563,267.975,103.136,267.975,102.71,267.975z" id="path-23" style="position: relative;"></path>
<path fill-rule="evenodd" clip-rule="evenodd" fill="#F59321" d="M361.578,257.108c3.289-26.326,10.009-49.222,18.536-70.31
	c28.872,8.414,58.023,16.547,85.65,26.206c-4.063,16.391-10.188,30.72-18.536,42.825c-9.243-5.232-19.869-11.617-33.237-12.783
	c-22.664-1.977-41.776,7.761-52.413,17.258C361.578,259.239,361.578,258.174,361.578,257.108z" id="path-24" style="position: relative;"></path>
</svg>
