<?xml version="1.0" encoding="UTF-8"?>
<svg xmlns="http://www.w3.org/2000/svg" xmlns:xlink="http://www.w3.org/1999/xlink" width="32px" height="32px" viewBox="0 0 32 32" version="1.1">
<g id="surface1">
<path style=" stroke:none;fill-rule:evenodd;fill:rgb(54.11765%,36.862746%,23.529412%);fill-opacity:1;" d="M 5.429688 6.1875 C 6.375 5.367188 7.363281 4.640625 8.414062 3.894531 C 8.75 3.660156 9.058594 3.324219 9.476562 3.199219 C 9.148438 4.972656 8.738281 6.660156 8.414062 8.4375 C 8.1875 8.441406 8.265625 8.75 8.210938 8.929688 C 7.898438 8.925781 7.339844 8.609375 7.144531 8.886719 C 7.363281 9.09375 7.847656 9.03125 8.167969 9.132812 C 8.105469 9.394531 8.019531 9.640625 8.003906 9.949219 C 7.652344 9.957031 7.175781 9.667969 6.902344 9.867188 C 6.929688 10.117188 7.621094 10.046875 7.921875 10.15625 C 7.90625 10.492188 7.792969 10.734375 7.757812 11.054688 C 7.332031 11.058594 6.917969 10.832031 6.53125 10.933594 C 6.515625 11.175781 6.84375 11.144531 7.023438 11.179688 C 7.238281 11.21875 7.480469 11.253906 7.679688 11.257812 C 7.71875 11.449219 7.570312 11.773438 7.554688 12.035156 C 7.109375 12.003906 6.621094 11.800781 6.207031 11.875 C 6.210938 12.152344 6.609375 12.082031 6.820312 12.117188 C 7.070312 12.160156 7.304688 12.234375 7.515625 12.242188 C 7.445312 12.472656 7.410156 12.738281 7.351562 12.976562 C 7.03125 12.960938 6.40625 12.675781 6.246094 12.894531 C 6.378906 13.15625 6.980469 13.046875 7.308594 13.183594 C 7.265625 13.492188 7.160156 13.742188 7.144531 14.082031 C 6.765625 14.132812 6.246094 13.769531 6.042969 14.042969 C 6.238281 14.265625 6.71875 14.207031 7.0625 14.285156 C 7.03125 14.59375 6.957031 14.863281 6.902344 15.144531 C 6.539062 15.175781 5.996094 14.839844 5.796875 15.105469 C 6.007812 15.328125 6.492188 15.28125 6.859375 15.351562 C 6.785156 15.65625 6.738281 15.992188 6.65625 16.292969 C 6.347656 16.246094 5.933594 16.085938 5.632812 16.167969 C 5.707031 16.53125 6.3125 16.359375 6.613281 16.496094 C 6.625 16.71875 6.410156 17.03125 6.574219 17.148438 C 6.28125 18.726562 5.90625 20.21875 5.632812 21.8125 C 5.617188 21.8125 5.605469 21.8125 5.589844 21.8125 C 5.214844 21.738281 5.085938 21.320312 4.894531 21.035156 C 3.578125 19.0625 2.1875 16.726562 1.867188 13.753906 C 1.867188 13.414062 1.867188 13.074219 1.867188 12.730469 C 2.128906 10.359375 3.128906 8.726562 4.324219 7.292969 C 4.707031 6.941406 5.078125 6.574219 5.429688 6.1875 Z M 5.429688 6.1875 "/>
<path style=" stroke:none;fill-rule:evenodd;fill:rgb(0%,0%,0%);fill-opacity:1;" d="M 20.320312 19.605469 C 20.667969 19.265625 21 18.714844 21.339844 18.296875 C 21.671875 17.886719 22.003906 17.449219 22.40625 17.109375 C 22.792969 17.605469 22.855469 18.429688 22.9375 19.238281 C 22.9375 19.496094 22.9375 19.753906 22.9375 20.015625 C 22.902344 20.441406 22.847656 21.003906 22.730469 21.445312 C 22.636719 21.808594 22.535156 22.269531 22.160156 22.304688 C 21.488281 21.476562 20.976562 20.488281 20.320312 19.644531 C 20.320312 19.632812 20.320312 19.617188 20.320312 19.605469 Z M 20.320312 19.605469 "/>
<path style=" stroke:none;fill-rule:evenodd;fill:rgb(82.745099%,80.000001%,79.607844%);fill-opacity:1;" d="M 5.671875 21.8125 C 6.097656 21.65625 7.308594 20.746094 7.882812 20.300781 C 8.21875 20.039062 8.667969 19.792969 8.660156 19.441406 C 8.660156 19.605469 8.660156 19.769531 8.660156 19.933594 C 8.566406 20.003906 8.644531 20.246094 8.617188 20.382812 C 8.476562 20.203125 8.160156 20.539062 7.882812 20.75 C 7.480469 21.058594 6.425781 22 6 22.019531 C 5.84375 22.023438 5.65625 22.015625 5.589844 21.8125 C 5.605469 21.8125 5.617188 21.8125 5.632812 21.8125 C 5.644531 21.8125 5.660156 21.8125 5.671875 21.8125 Z M 5.671875 21.8125 "/>
<path style=" stroke:none;fill-rule:evenodd;fill:rgb(0%,0%,0%);fill-opacity:1;" d="M 8.863281 21.648438 C 8.828125 21.480469 8.945312 21.457031 8.945312 21.324219 C 10.039062 21.566406 11.03125 21.910156 12.136719 22.140625 C 12.222656 23.269531 12.308594 24.394531 12.421875 25.496094 C 12.253906 25.53125 12.140625 25.625 11.972656 25.660156 C 11.816406 25.679688 11.804688 25.554688 11.6875 25.535156 C 11.601562 25.488281 11.566406 25.382812 11.441406 25.371094 C 11.292969 25.195312 11.082031 25.078125 10.910156 24.921875 C 10.664062 24.644531 10.394531 24.375 10.171875 24.1875 C 9.621094 23.457031 9.183594 22.613281 8.863281 21.648438 Z M 8.863281 21.648438 "/>
<path style=" stroke:none;fill-rule:evenodd;fill:rgb(0%,0%,0%);fill-opacity:1;" d="M 15.53125 26.804688 C 15.007812 26.726562 15.476562 26.242188 15.695312 25.90625 C 16.101562 25.28125 16.699219 24.445312 17.003906 23.898438 C 18.027344 24.210938 19.089844 24.488281 20.113281 24.800781 C 20.113281 24.964844 20.113281 25.128906 20.113281 25.289062 C 19.113281 26.15625 17.769531 26.683594 16.023438 26.804688 C 15.859375 26.804688 15.695312 26.804688 15.53125 26.804688 Z M 15.53125 26.804688 "/>
<path style=" stroke:none;fill-rule:evenodd;fill:rgb(82.745099%,80.000001%,79.607844%);fill-opacity:1;" d="M 8.863281 21.648438 C 9.183594 22.613281 9.617188 23.457031 10.171875 24.1875 C 10.253906 24.351562 10.398438 24.449219 10.5 24.59375 C 11.941406 26.082031 13.609375 27.332031 16.597656 27.132812 C 19.074219 26.964844 20.839844 25.613281 21.914062 24.0625 C 22.304688 23.5 22.589844 22.910156 22.894531 22.222656 C 22.929688 22.214844 22.933594 22.238281 22.9375 22.265625 C 23.097656 22.402344 23.257812 22.542969 23.386719 22.714844 C 23.238281 22.628906 23.164062 22.472656 23.019531 22.386719 C 21.769531 25.066406 19.574219 27.546875 15.53125 27.296875 C 11.964844 27.074219 9.675781 24.699219 8.863281 21.648438 Z M 8.863281 21.648438 "/>
<path style=" stroke:none;fill-rule:evenodd;fill:rgb(82.745099%,80.000001%,79.607844%);fill-opacity:1;" d="M 23.753906 22.960938 C 24.542969 23.40625 25.265625 23.730469 26.535156 23.613281 C 28.464844 23.433594 30.035156 21.796875 30.175781 19.933594 C 30.242188 19.070312 30.046875 18.328125 29.605469 17.519531 C 30.148438 18.191406 30.472656 19.066406 30.421875 20.054688 C 30.308594 22.347656 28.183594 24.109375 25.839844 23.859375 C 25.160156 23.785156 24.289062 23.464844 23.753906 22.960938 Z M 23.753906 22.960938 "/>
<path style=" stroke:none;fill-rule:evenodd;fill:rgb(82.745099%,80.000001%,79.607844%);fill-opacity:1;" d="M 28.621094 6.597656 C 30.472656 8.589844 30.90625 12.773438 29.605469 15.597656 C 29.386719 16.066406 28.984375 16.417969 29.195312 16.90625 C 29.203125 16.9375 29.238281 16.945312 29.234375 16.988281 C 29.078125 16.8125 28.738281 16.621094 28.746094 16.414062 C 29.484375 15.175781 30.070312 13.785156 30.136719 11.875 C 30.203125 11.789062 30.203125 11.425781 30.136719 11.339844 C 30.058594 9.332031 29.414062 7.894531 28.621094 6.597656 Z M 28.621094 6.597656 "/>
<path style=" stroke:none;fill-rule:evenodd;fill:rgb(0%,0%,0%);fill-opacity:1;" d="M 14.632812 4.671875 C 16.121094 3.449219 17.902344 2.515625 20.523438 2.421875 C 20.660156 2.421875 20.796875 2.421875 20.933594 2.421875 C 24.699219 2.613281 26.945312 4.316406 28.621094 6.597656 C 29.414062 7.894531 30.058594 9.332031 30.136719 11.339844 C 30.136719 11.519531 30.136719 11.695312 30.136719 11.875 C 30.070312 13.785156 29.484375 15.175781 28.746094 16.414062 C 28.6875 16.460938 28.644531 16.457031 28.621094 16.375 C 29.15625 15.597656 29.550781 14.679688 29.808594 13.632812 C 28.039062 13.015625 26.175781 12.492188 24.328125 11.957031 C 23.78125 13.304688 23.351562 14.769531 23.140625 16.453125 C 23.074219 16.578125 23.109375 16.804688 22.976562 16.863281 C 22.9375 16.863281 22.945312 16.8125 22.9375 16.78125 C 23.164062 14.976562 23.632812 13.414062 24.164062 11.914062 C 23.296875 11.582031 22.324219 11.351562 21.421875 11.054688 C 21.082031 11.996094 20.804688 13 20.523438 14 C 20.476562 14.007812 20.488281 14.074219 20.480469 14.125 C 20.410156 14.113281 20.390625 14.054688 20.398438 13.960938 C 20.722656 13.015625 20.980469 12.003906 21.300781 11.054688 C 20.144531 10.617188 18.847656 10.316406 17.660156 9.910156 C 17.390625 10.761719 17.199219 11.6875 16.882812 12.488281 C 17.851562 12.730469 18.800781 12.996094 19.542969 13.46875 C 19.761719 13.671875 20.007812 13.847656 20.277344 14 C 20.324219 14.160156 20.535156 14.152344 20.5625 14.328125 C 20.527344 14.589844 20.46875 14.832031 20.441406 15.105469 C 19.289062 15.332031 18.179688 15.601562 17.046875 15.839844 C 16.421875 14.9375 15.984375 13.847656 15.449219 12.855469 C 15.480469 12.667969 15.671875 12.640625 15.738281 12.488281 C 15.773438 12.496094 15.773438 12.472656 15.777344 12.445312 C 16.136719 12.414062 16.371094 12.507812 16.71875 12.488281 C 17.046875 11.695312 17.253906 10.785156 17.496094 9.910156 C 15.804688 9.324219 14.035156 8.816406 12.257812 8.3125 C 11.972656 9.023438 11.753906 9.800781 11.726562 10.769531 C 11.660156 11.070312 11.660156 11.65625 11.726562 11.957031 C 11.71875 12.507812 11.828125 12.945312 11.933594 13.386719 C 11.933594 13.414062 11.933594 13.441406 11.933594 13.46875 C 12.03125 13.628906 12.3125 13.609375 12.421875 13.753906 C 12.421875 13.796875 12.421875 13.835938 12.421875 13.878906 C 12.328125 13.949219 12.410156 14.191406 12.382812 14.328125 C 12.382812 14.492188 12.382812 14.65625 12.382812 14.820312 C 12.289062 14.886719 12.367188 15.128906 12.339844 15.269531 C 12.339844 15.417969 12.339844 15.570312 12.339844 15.71875 C 12.246094 15.789062 12.328125 16.03125 12.300781 16.167969 C 12.300781 16.332031 12.300781 16.496094 12.300781 16.660156 C 12.207031 16.742188 12.285156 17 12.257812 17.148438 C 12.257812 17.164062 12.257812 17.175781 12.257812 17.191406 C 11.136719 17.429688 10.125 17.785156 8.988281 18.007812 C 9 17.945312 8.949219 17.9375 8.945312 17.886719 C 8.8125 17.414062 9.085938 16.929688 9.273438 16.535156 C 9.847656 15.332031 10.78125 14.300781 11.851562 13.589844 C 11.765625 13.050781 11.648438 12.539062 11.605469 11.953125 C 11.605469 11.558594 11.605469 11.164062 11.605469 10.769531 C 11.695312 9.617188 11.964844 8.648438 12.339844 7.78125 C 12.34375 7.730469 12.394531 7.726562 12.382812 7.660156 C 12.773438 6.90625 13.207031 6.195312 13.730469 5.574219 C 14.023438 5.265625 14.3125 4.953125 14.632812 4.671875 Z M 20.238281 2.546875 C 19.421875 2.5625 18.71875 2.691406 18.109375 2.914062 C 18.445312 2.988281 18.242188 3.597656 18.355469 3.894531 C 18.355469 4.402344 18.355469 4.90625 18.355469 5.410156 C 18.261719 7.019531 17.960938 8.425781 17.660156 9.828125 C 18.902344 10.179688 20.113281 10.5625 21.339844 10.933594 C 22.109375 8.265625 22.941406 5.664062 23.714844 2.996094 C 22.949219 2.777344 22.191406 2.554688 21.21875 2.546875 C 20.984375 2.476562 20.46875 2.476562 20.238281 2.546875 Z M 18.191406 3.9375 C 18.210938 3.550781 18.140625 3.25 18.109375 2.914062 C 15.269531 3.769531 13.359375 5.554688 12.300781 8.191406 C 14.046875 8.710938 15.738281 9.28125 17.535156 9.746094 C 17.796875 8.601562 18.074219 7.476562 18.148438 6.144531 C 18.242188 6.089844 18.164062 5.863281 18.191406 5.738281 C 18.191406 5.683594 18.191406 5.628906 18.191406 5.574219 C 18.257812 5.125 18.257812 4.386719 18.191406 3.9375 Z M 27.148438 5.042969 C 26.21875 4.1875 25.132812 3.488281 23.796875 3.039062 C 23.035156 5.714844 22.203125 8.316406 21.421875 10.972656 C 22.378906 11.214844 23.269531 11.527344 24.203125 11.792969 C 24.988281 9.425781 26.226562 7.257812 27.601562 5.613281 C 27.636719 5.570312 27.632812 5.53125 27.601562 5.492188 C 27.46875 5.324219 27.316406 5.175781 27.148438 5.042969 Z M 30.011719 11.136719 C 29.867188 8.664062 28.921875 6.992188 27.683594 5.613281 C 26.257812 7.367188 25.164062 9.449219 24.367188 11.832031 C 26.1875 12.386719 27.980469 12.96875 29.851562 13.46875 C 29.921875 13.035156 30.027344 12.636719 30.011719 12.117188 C 30.082031 11.886719 30.082031 11.371094 30.011719 11.136719 Z M 30.011719 11.136719 "/>
<path style=" stroke:none;fill-rule:evenodd;fill:rgb(96.078432%,57.647061%,12.941177%);fill-opacity:1;" d="M 30.011719 12.117188 C 30.027344 12.636719 29.921875 13.035156 29.851562 13.46875 C 27.980469 12.96875 26.1875 12.386719 24.367188 11.832031 C 25.164062 9.449219 26.257812 7.367188 27.683594 5.613281 C 28.921875 6.992188 29.867188 8.664062 30.011719 11.136719 C 30.011719 11.464844 30.011719 11.792969 30.011719 12.117188 Z M 30.011719 12.117188 "/>
<path style=" stroke:none;fill-rule:evenodd;fill:rgb(54.11765%,36.862746%,23.529412%);fill-opacity:1;" d="M 20.523438 14 C 20.53125 14.269531 20.9375 14.476562 21.175781 14.738281 C 21.816406 15.429688 22.339844 16.21875 22.730469 17.109375 C 22.835938 17.050781 22.925781 16.976562 22.894531 16.78125 C 22.910156 16.78125 22.921875 16.78125 22.9375 16.78125 C 22.945312 16.8125 22.9375 16.863281 22.976562 16.863281 C 23.109375 16.804688 23.074219 16.578125 23.140625 16.453125 C 23.140625 16.523438 23.140625 16.589844 23.140625 16.660156 C 23.820312 16.050781 25.046875 15.429688 26.496094 15.554688 C 27.351562 15.628906 28.03125 16.039062 28.621094 16.375 C 28.644531 16.457031 28.6875 16.460938 28.746094 16.414062 C 28.738281 16.621094 29.078125 16.8125 29.238281 16.988281 C 29.335938 17.1875 29.496094 17.328125 29.605469 17.519531 C 30.046875 18.328125 30.242188 19.070312 30.175781 19.933594 C 30.035156 21.796875 28.464844 23.433594 26.535156 23.613281 C 25.265625 23.730469 24.542969 23.40625 23.753906 22.960938 C 23.621094 22.886719 23.550781 22.753906 23.386719 22.714844 C 23.257812 22.542969 23.097656 22.402344 22.9375 22.265625 C 22.984375 22.257812 22.972656 22.1875 22.976562 22.140625 C 23.03125 22.15625 23.042969 22.214844 23.101562 22.222656 C 24.027344 23.71875 27.515625 23.914062 28.703125 22.507812 C 28.824219 22.398438 29.089844 22.210938 29.074219 22.101562 C 28.96875 21.960938 28.785156 21.894531 28.664062 21.773438 C 28.511719 21.765625 28.453125 21.992188 28.335938 21.894531 C 28.367188 21.804688 28.480469 21.792969 28.539062 21.730469 C 28.332031 21.519531 28.027344 21.398438 27.804688 21.199219 C 27.660156 21.203125 27.65625 21.351562 27.476562 21.324219 C 27.507812 21.230469 27.601562 21.199219 27.683594 21.160156 C 27.382812 20.976562 27.042969 20.554688 26.617188 20.75 C 26.589844 20.640625 26.703125 20.671875 26.742188 20.628906 C 26.410156 20.375 25.835938 20.125 25.472656 20.464844 C 25.480469 20.308594 25.683594 20.347656 25.71875 20.21875 C 25.621094 20.195312 25.53125 20.160156 25.390625 20.175781 C 25.308594 20.109375 24.941406 20.109375 24.859375 20.175781 C 24.78125 20.332031 24.761719 20.542969 24.574219 20.585938 C 24.621094 20.429688 24.722656 20.328125 24.777344 20.175781 C 24.558594 20.136719 24.144531 20.253906 23.917969 20.339844 C 23.859375 20.417969 23.839844 20.535156 23.835938 20.667969 C 23.644531 20.660156 23.851562 20.507812 23.796875 20.382812 C 23.632812 20.410156 23.515625 20.484375 23.386719 20.546875 C 23.273438 20.515625 23.304688 20.625 23.222656 20.628906 C 23.214844 20.574219 23.390625 20.503906 23.265625 20.464844 C 23.273438 20.40625 23.386719 20.449219 23.386719 20.382812 C 23.554688 20.371094 23.617188 20.257812 23.796875 20.257812 C 23.859375 19.847656 23.503906 19.65625 23.507812 19.441406 C 23.726562 19.605469 23.871094 19.84375 23.878906 20.21875 C 24.140625 20.140625 24.390625 20.050781 24.738281 20.054688 C 25.019531 19.921875 24.710938 19.46875 24.777344 19.316406 C 24.898438 19.457031 24.960938 19.78125 24.898438 19.972656 C 25.183594 20.042969 25.53125 20.050781 25.839844 20.09375 C 25.984375 19.964844 26.09375 19.800781 26.085938 19.523438 C 26.128906 19.511719 26.113281 19.441406 26.167969 19.441406 C 26.167969 19.507812 26.167969 19.578125 26.167969 19.644531 C 26.125 19.820312 26.066406 19.980469 25.964844 20.09375 C 26.195312 20.285156 26.59375 20.308594 26.824219 20.503906 C 27.175781 20.421875 27.15625 19.964844 27.355469 19.726562 C 27.324219 20.09375 27.191406 20.355469 26.988281 20.546875 C 27.210938 20.742188 27.519531 20.859375 27.761719 21.035156 C 28.082031 20.960938 28.027344 20.507812 28.214844 20.300781 C 28.207031 20.660156 28.070312 20.894531 27.886719 21.078125 C 28.082031 21.300781 28.382812 21.425781 28.621094 21.609375 C 28.953125 21.542969 28.894531 21.089844 29.074219 20.871094 C 29.097656 21.527344 28.433594 21.683594 29.15625 21.976562 C 30.378906 20.988281 30.253906 18.046875 29.113281 17.070312 C 28.996094 16.914062 28.859375 16.777344 28.703125 16.660156 C 27.6875 15.421875 24.5625 15.371094 23.46875 16.578125 C 23.734375 16.832031 24.105469 16.976562 24.410156 17.191406 C 24.53125 17.09375 24.539062 16.882812 24.574219 16.699219 C 24.691406 16.847656 24.558594 17.09375 24.53125 17.230469 C 24.691406 17.386719 24.941406 17.453125 25.105469 17.601562 C 25.414062 17.5 25.484375 17.160156 25.554688 16.824219 C 25.683594 17.15625 25.425781 17.457031 25.269531 17.640625 C 25.519531 17.8125 25.867188 17.886719 26.167969 18.007812 C 26.417969 17.90625 26.355469 17.488281 26.535156 17.3125 C 26.542969 17.621094 26.421875 17.800781 26.332031 18.007812 C 26.542969 18.117188 27.054688 18.125 27.3125 18.050781 C 27.496094 18.027344 27.34375 17.671875 27.519531 17.640625 C 27.546875 17.804688 27.480469 17.875 27.476562 18.007812 C 27.75 18.019531 28.199219 17.859375 28.460938 17.722656 C 28.398438 17.578125 28.394531 17.375 28.296875 17.273438 C 28.433594 17.175781 28.507812 17.496094 28.5 17.683594 C 28.832031 17.667969 29.0625 17.351562 29.316406 17.394531 C 29.121094 17.621094 28.785156 17.710938 28.5 17.84375 C 28.503906 18.136719 28.382812 18.304688 28.296875 18.5 C 28.117188 18.378906 28.457031 18.171875 28.417969 17.925781 C 28.175781 17.929688 27.785156 18.136719 27.4375 18.171875 C 27.246094 18.34375 27.03125 18.691406 26.78125 18.664062 C 26.933594 18.5 27.160156 18.414062 27.273438 18.214844 C 26.789062 18.261719 26.09375 18.011719 25.800781 18.378906 C 25.816406 18.21875 25.988281 18.210938 26.085938 18.132812 C 25.796875 17.984375 25.425781 17.917969 25.1875 17.722656 C 25.0625 17.746094 24.972656 17.9375 24.859375 17.84375 C 24.886719 17.765625 24.96875 17.738281 25.0625 17.722656 C 24.925781 17.546875 24.632812 17.527344 24.492188 17.355469 C 24.25 17.421875 24.121094 17.792969 23.878906 17.722656 C 24.035156 17.59375 24.21875 17.492188 24.328125 17.3125 C 24.070312 17.039062 23.625 16.949219 23.386719 16.660156 C 23.207031 16.820312 23.011719 16.964844 22.894531 17.191406 C 22.863281 17.199219 22.855469 17.230469 22.8125 17.230469 C 22.777344 17.09375 22.722656 17.195312 22.648438 17.230469 C 22.636719 17.230469 22.621094 17.230469 22.609375 17.230469 C 22.179688 16.039062 21.460938 14.917969 20.5625 14.328125 C 20.535156 14.152344 20.324219 14.160156 20.277344 14 C 20.277344 13.960938 20.246094 13.953125 20.238281 13.917969 C 20.320312 13.941406 20.316406 14.042969 20.398438 13.960938 C 20.386719 14.054688 20.410156 14.113281 20.480469 14.125 C 20.488281 14.074219 20.476562 14.007812 20.523438 14 Z M 20.523438 14 "/>
<path style=" stroke:none;fill-rule:evenodd;fill:rgb(82.745099%,80.000001%,79.607844%);fill-opacity:1;" d="M 23.222656 20.628906 C 23.304688 20.628906 23.273438 20.515625 23.386719 20.546875 C 23.316406 21.085938 23.054688 21.835938 23.101562 22.222656 C 23.042969 22.214844 23.03125 22.15625 22.976562 22.140625 C 23.007812 22.03125 22.894531 22.058594 22.894531 21.976562 C 23.015625 21.675781 22.988281 21.226562 23.183594 20.996094 C 23.207031 20.847656 23.050781 20.679688 23.222656 20.628906 Z M 23.222656 20.628906 "/>
<path style=" stroke:none;fill-rule:evenodd;fill:rgb(82.745099%,80.000001%,79.607844%);fill-opacity:1;" d="M 22.8125 17.230469 C 22.855469 17.230469 22.863281 17.199219 22.894531 17.191406 C 23.109375 18.003906 23.5 19.199219 23.34375 20.382812 C 23.359375 20.382812 23.371094 20.382812 23.386719 20.382812 C 23.386719 20.449219 23.273438 20.40625 23.265625 20.464844 C 23.25 20.464844 23.238281 20.464844 23.222656 20.464844 C 23.152344 19.535156 23.164062 18.53125 22.855469 17.847656 C 22.835938 17.605469 22.664062 17.417969 22.8125 17.230469 Z M 22.8125 17.230469 "/>
<path style=" stroke:none;fill-rule:evenodd;fill:rgb(0%,0%,0%);fill-opacity:1;" d="M 18.765625 19.5625 C 17.988281 20.476562 17.3125 21.496094 16.554688 22.425781 C 15.589844 22.015625 14.472656 21.753906 13.445312 21.40625 C 13.511719 20.285156 13.675781 19.042969 13.609375 17.925781 C 14.652344 17.675781 15.808594 17.179688 16.882812 16.824219 C 16.910156 16.824219 16.9375 16.824219 16.964844 16.824219 C 17.546875 17.738281 18.113281 18.675781 18.765625 19.523438 C 18.765625 19.535156 18.765625 19.550781 18.765625 19.5625 Z M 18.765625 19.5625 "/>
<path style=" stroke:none;fill-rule:evenodd;fill:rgb(27.843139%,22.745098%,17.647059%);fill-opacity:1;" d="M 13.363281 26.476562 C 14.273438 26.757812 15.214844 26.957031 16.351562 26.886719 C 19.644531 26.683594 21.816406 24.460938 22.730469 21.8125 C 22.804688 21.851562 22.800781 21.964844 22.894531 21.976562 C 22.894531 22.058594 23.007812 22.03125 22.976562 22.140625 C 22.972656 22.1875 22.984375 22.257812 22.9375 22.265625 C 22.933594 22.238281 22.929688 22.214844 22.894531 22.222656 C 22.871094 22.164062 22.832031 22.125 22.773438 22.101562 C 21.835938 24.796875 19.25 27.238281 15.574219 27.007812 C 14.769531 26.960938 13.992188 26.777344 13.363281 26.476562 Z M 13.363281 26.476562 "/>
<path style=" stroke:none;fill-rule:evenodd;fill:rgb(54.11765%,36.862746%,23.529412%);fill-opacity:1;" d="M 10.5 24.59375 C 10.652344 24.660156 10.789062 24.957031 10.910156 24.921875 C 11.082031 25.078125 11.292969 25.195312 11.441406 25.371094 C 11.371094 25.441406 11.742188 25.710938 11.6875 25.535156 C 11.804688 25.554688 11.816406 25.679688 11.972656 25.660156 C 11.808594 25.800781 12.289062 25.886719 12.382812 26.027344 C 12.5 26.140625 12.773438 26.316406 12.914062 26.273438 C 13.046875 26.359375 13.242188 26.382812 13.363281 26.476562 C 13.992188 26.777344 14.769531 26.960938 15.574219 27.007812 C 19.25 27.238281 21.835938 24.796875 22.773438 22.101562 C 22.832031 22.125 22.871094 22.164062 22.894531 22.222656 C 22.589844 22.910156 22.304688 23.5 21.914062 24.0625 C 20.839844 25.613281 19.074219 26.964844 16.597656 27.132812 C 13.609375 27.332031 11.941406 26.082031 10.5 24.59375 Z M 10.5 24.59375 "/>
<path style=" stroke:none;fill-rule:evenodd;fill:rgb(96.078432%,57.647061%,12.941177%);fill-opacity:1;" d="M 21.21875 2.546875 C 22.191406 2.554688 22.949219 2.777344 23.714844 2.996094 C 22.941406 5.664062 22.109375 8.265625 21.339844 10.933594 C 20.113281 10.5625 18.902344 10.179688 17.660156 9.828125 C 17.960938 8.425781 18.261719 7.019531 18.355469 5.410156 C 18.421875 5 18.421875 4.304688 18.355469 3.894531 C 18.242188 3.597656 18.445312 2.988281 18.109375 2.914062 C 18.71875 2.691406 19.421875 2.5625 20.238281 2.546875 C 20.5625 2.546875 20.890625 2.546875 21.21875 2.546875 Z M 21.21875 2.546875 "/>
<path style=" stroke:none;fill-rule:evenodd;fill:rgb(96.078432%,57.647061%,12.941177%);fill-opacity:1;" d="M 27.601562 5.492188 C 27.632812 5.53125 27.636719 5.570312 27.601562 5.613281 C 26.226562 7.257812 24.988281 9.425781 24.203125 11.792969 C 23.269531 11.527344 22.378906 11.214844 21.421875 10.972656 C 22.203125 8.316406 23.035156 5.714844 23.796875 3.039062 C 25.132812 3.488281 26.21875 4.1875 27.148438 5.042969 C 27.28125 5.207031 27.433594 5.359375 27.601562 5.492188 Z M 27.601562 5.492188 "/>
<path style=" stroke:none;fill-rule:evenodd;fill:rgb(54.11765%,36.862746%,23.529412%);fill-opacity:1;" d="M 12.339844 7.78125 C 11.964844 8.648438 11.695312 9.617188 11.605469 10.769531 C 11.535156 11.070312 11.535156 11.65625 11.605469 11.957031 C 11.648438 12.539062 11.765625 13.050781 11.851562 13.589844 C 10.78125 14.300781 9.847656 15.332031 9.273438 16.535156 C 9.085938 16.929688 8.8125 17.414062 8.945312 17.886719 C 8.785156 17.96875 8.691406 18.558594 8.660156 18.949219 C 8.644531 19.125 8.667969 19.285156 8.660156 19.441406 C 8.667969 19.792969 8.21875 20.039062 7.882812 20.300781 C 7.308594 20.746094 6.097656 21.65625 5.671875 21.8125 C 6.007812 20.265625 6.320312 18.695312 6.65625 17.152344 C 6.863281 17.085938 6.796875 16.746094 6.859375 16.535156 C 7.191406 16.515625 7.742188 16.84375 7.921875 16.578125 C 7.730469 16.359375 7.25 16.433594 6.941406 16.332031 C 6.957031 15.992188 7.058594 15.742188 7.105469 15.433594 C 7.460938 15.371094 7.933594 15.722656 8.128906 15.433594 C 7.921875 15.257812 7.519531 15.277344 7.1875 15.226562 C 7.128906 15 7.316406 14.679688 7.308594 14.367188 C 7.675781 14.308594 8.089844 14.617188 8.332031 14.410156 C 8.332031 14.15625 7.644531 14.253906 7.390625 14.125 C 7.414062 13.789062 7.535156 13.558594 7.554688 13.222656 C 7.902344 13.257812 8.199219 13.34375 8.535156 13.386719 C 8.535156 13.332031 8.535156 13.277344 8.535156 13.222656 C 8.324219 13.054688 7.917969 13.082031 7.597656 13.019531 C 7.664062 12.785156 7.714844 12.539062 7.757812 12.28125 C 8.003906 12.324219 8.222656 12.390625 8.496094 12.40625 C 8.546875 12.011719 8.027344 12.191406 7.800781 12.078125 C 7.855469 11.832031 7.910156 11.585938 7.964844 11.339844 C 8.28125 11.355469 8.519531 11.441406 8.824219 11.464844 C 8.84375 11.0625 8.296875 11.226562 8.003906 11.136719 C 8.066406 10.816406 8.128906 10.496094 8.210938 10.195312 C 8.511719 10.210938 8.984375 10.4375 9.191406 10.277344 C 9.085938 9.976562 8.539062 10.113281 8.25 9.992188 C 8.296875 9.710938 8.355469 9.441406 8.414062 9.171875 C 8.753906 9.15625 9.289062 9.472656 9.476562 9.214844 C 9.269531 9 8.789062 9.058594 8.457031 8.96875 C 8.449219 8.824219 8.652344 8.507812 8.457031 8.4375 C 8.84375 6.726562 9.175781 4.957031 9.558594 3.242188 C 9.984375 3.773438 10.320312 4.390625 10.707031 4.960938 C 11.292969 5.875 11.8125 6.851562 12.300781 7.863281 C 12.308594 7.832031 12.300781 7.785156 12.339844 7.78125 Z M 12.339844 7.78125 "/>
<path style=" stroke:none;fill-rule:evenodd;fill:rgb(96.078432%,57.647061%,12.941177%);fill-opacity:1;" d="M 18.148438 6.144531 C 18.074219 7.476562 17.796875 8.601562 17.535156 9.746094 C 15.738281 9.28125 14.046875 8.710938 12.300781 8.191406 C 13.359375 5.554688 15.269531 3.769531 18.109375 2.914062 C 18.140625 3.25 18.210938 3.550781 18.191406 3.9375 C 18.191406 4.484375 18.191406 5.027344 18.191406 5.574219 C 18.191406 5.628906 18.191406 5.683594 18.191406 5.738281 C 18.097656 5.792969 18.175781 6.023438 18.148438 6.144531 Z M 18.148438 6.144531 "/>
<path style=" stroke:none;fill-rule:evenodd;fill:rgb(96.078432%,57.647061%,12.941177%);fill-opacity:1;" d="M 20.523438 14 C 20.804688 13 21.082031 11.996094 21.421875 11.054688 C 22.324219 11.351562 23.296875 11.582031 24.164062 11.914062 C 23.632812 13.414062 23.164062 14.976562 22.9375 16.78125 C 22.921875 16.78125 22.910156 16.78125 22.894531 16.78125 C 22.925781 16.976562 22.835938 17.050781 22.730469 17.109375 C 22.339844 16.21875 21.816406 15.429688 21.175781 14.738281 C 20.9375 14.476562 20.53125 14.269531 20.523438 14 Z M 20.523438 14 "/>
<path style=" stroke:none;fill-rule:evenodd;fill:rgb(96.078432%,57.647061%,12.941177%);fill-opacity:1;" d="M 11.726562 10.769531 C 11.753906 9.800781 11.972656 9.023438 12.257812 8.3125 C 14.035156 8.816406 15.804688 9.324219 17.496094 9.910156 C 17.253906 10.785156 17.046875 11.695312 16.71875 12.488281 C 16.371094 12.507812 16.136719 12.414062 15.777344 12.445312 C 15.332031 12.4375 14.921875 12.464844 14.589844 12.570312 C 14.578125 12.570312 14.5625 12.570312 14.550781 12.570312 C 14.144531 12.613281 13.792969 12.710938 13.488281 12.855469 C 12.882812 12.972656 12.503906 13.320312 11.972656 13.507812 C 11.976562 13.453125 11.980469 13.394531 11.933594 13.386719 C 11.828125 12.945312 11.71875 12.507812 11.726562 11.957031 C 11.726562 11.558594 11.726562 11.164062 11.726562 10.769531 Z M 11.726562 10.769531 "/>
<path style=" stroke:none;fill-rule:evenodd;fill:rgb(96.078432%,57.647061%,12.941177%);fill-opacity:1;" d="M 19.542969 13.46875 C 18.800781 12.996094 17.851562 12.730469 16.882812 12.488281 C 17.199219 11.6875 17.390625 10.761719 17.660156 9.910156 C 18.847656 10.316406 20.144531 10.617188 21.300781 11.054688 C 20.980469 12.003906 20.722656 13.015625 20.398438 13.960938 C 20.316406 14.042969 20.320312 13.941406 20.238281 13.917969 C 20.011719 13.761719 19.804688 13.585938 19.542969 13.46875 Z M 19.542969 13.46875 "/>
<path style=" stroke:none;fill-rule:evenodd;fill:rgb(100%,100%,100%);fill-opacity:1;" d="M 6.574219 17.152344 C 6.410156 17.03125 6.625 16.71875 6.613281 16.496094 C 6.316406 16.359375 5.707031 16.53125 5.632812 16.167969 C 5.933594 16.085938 6.347656 16.246094 6.65625 16.292969 C 6.738281 15.992188 6.785156 15.65625 6.859375 15.351562 C 6.492188 15.28125 6.007812 15.328125 5.796875 15.105469 C 5.996094 14.839844 6.539062 15.175781 6.902344 15.144531 C 6.957031 14.863281 7.03125 14.59375 7.0625 14.285156 C 6.71875 14.207031 6.242188 14.265625 6.042969 14.042969 C 6.246094 13.769531 6.765625 14.132812 7.144531 14.082031 C 7.160156 13.742188 7.265625 13.492188 7.308594 13.183594 C 6.980469 13.046875 6.378906 13.15625 6.246094 12.894531 C 6.40625 12.675781 7.03125 12.960938 7.351562 12.976562 C 7.410156 12.738281 7.445312 12.472656 7.515625 12.242188 C 7.304688 12.234375 7.070312 12.160156 6.820312 12.117188 C 6.609375 12.082031 6.214844 12.152344 6.207031 11.875 C 6.621094 11.800781 7.113281 12.003906 7.554688 12.035156 C 7.570312 11.773438 7.71875 11.449219 7.679688 11.261719 C 7.484375 11.253906 7.238281 11.21875 7.023438 11.179688 C 6.84375 11.144531 6.515625 11.175781 6.53125 10.933594 C 6.917969 10.832031 7.332031 11.058594 7.761719 11.054688 C 7.792969 10.734375 7.90625 10.492188 7.921875 10.15625 C 7.621094 10.046875 6.929688 10.117188 6.902344 9.867188 C 7.175781 9.667969 7.652344 9.957031 8.003906 9.949219 C 8.019531 9.640625 8.105469 9.394531 8.167969 9.132812 C 7.847656 9.03125 7.363281 9.09375 7.144531 8.886719 C 7.339844 8.609375 7.898438 8.925781 8.210938 8.929688 C 8.265625 8.75 8.1875 8.441406 8.414062 8.4375 C 8.429688 8.4375 8.441406 8.4375 8.457031 8.4375 C 8.65625 8.507812 8.449219 8.824219 8.457031 8.96875 C 8.789062 9.058594 9.269531 9 9.476562 9.214844 C 9.289062 9.472656 8.753906 9.160156 8.414062 9.171875 C 8.355469 9.441406 8.300781 9.710938 8.25 9.992188 C 8.539062 10.113281 9.085938 9.976562 9.191406 10.277344 C 8.984375 10.4375 8.511719 10.210938 8.210938 10.195312 C 8.128906 10.496094 8.066406 10.816406 8.003906 11.136719 C 8.296875 11.226562 8.84375 11.0625 8.824219 11.464844 C 8.519531 11.441406 8.28125 11.355469 7.964844 11.339844 C 7.910156 11.585938 7.855469 11.832031 7.800781 12.078125 C 8.027344 12.191406 8.546875 12.011719 8.496094 12.40625 C 8.222656 12.390625 8.003906 12.324219 7.761719 12.28125 C 7.71875 12.539062 7.664062 12.785156 7.597656 13.019531 C 7.917969 13.082031 8.324219 13.054688 8.535156 13.222656 C 8.535156 13.277344 8.535156 13.332031 8.535156 13.386719 C 8.199219 13.34375 7.902344 13.257812 7.554688 13.222656 C 7.535156 13.558594 7.414062 13.789062 7.390625 14.125 C 7.644531 14.253906 8.332031 14.15625 8.332031 14.410156 C 8.089844 14.617188 7.675781 14.308594 7.308594 14.367188 C 7.316406 14.679688 7.128906 15 7.1875 15.226562 C 7.519531 15.277344 7.921875 15.257812 8.128906 15.433594 C 7.933594 15.722656 7.460938 15.371094 7.105469 15.433594 C 7.058594 15.742188 6.957031 15.992188 6.941406 16.332031 C 7.25 16.433594 7.730469 16.359375 7.921875 16.578125 C 7.742188 16.847656 7.195312 16.515625 6.859375 16.535156 C 6.796875 16.746094 6.863281 17.085938 6.65625 17.152344 C 6.628906 17.152344 6.601562 17.152344 6.574219 17.152344 Z M 6.574219 17.152344 "/>
<path style=" stroke:none;fill-rule:evenodd;fill:rgb(96.078432%,57.647061%,12.941177%);fill-opacity:1;" d="M 23.140625 16.453125 C 23.351562 14.769531 23.78125 13.304688 24.328125 11.953125 C 26.175781 12.492188 28.039062 13.015625 29.808594 13.632812 C 29.550781 14.679688 29.15625 15.597656 28.621094 16.375 C 28.03125 16.039062 27.351562 15.628906 26.496094 15.554688 C 25.046875 15.429688 23.820312 16.050781 23.140625 16.660156 C 23.140625 16.589844 23.140625 16.523438 23.140625 16.453125 Z M 23.140625 16.453125 "/>
</g>
</svg>
