<?xml version='1.0' encoding='iso-8859-1'?>
<!-- Uploaded to: SVG Repo, www.svgrepo.com, Generator: SVG Repo Mixer Tools -->
<svg fill="#000000" height="800px" width="800px" version="1.1" xmlns="http://www.w3.org/2000/svg" viewBox="0 0 463 463" xmlns:xlink="http://www.w3.org/1999/xlink" enable-background="new 0 0 463 463">
  <path d="m395.195,67.805c-43.724-43.725-101.859-67.805-163.695-67.805s-119.971,24.08-163.695,67.805-67.805,101.859-67.805,163.695 24.08,119.971 67.805,163.695 101.859,67.805 163.695,67.805 119.971-24.08 163.695-67.805 67.805-101.859 67.805-163.695-24.08-119.971-67.805-163.695zm52.8,164.076l-28.262-20.533-22.851-72.013 10.909-33.572c26.115,36.448 40.209,80.007 40.209,125.737 0,0.127-0.004,0.254-0.005,0.381zm-28.827,107.726h-43.791l-23.061-70.974 60.373-43.863 34.532,25.089c-2.663,31.927-12.256,62.428-28.053,89.748zm-119.276,52.313l-60.892-44.241v-36.75l63.922-46.443 34.979,8.321 23.28,71.649-61.289,47.464zm-136.835,.037l-61.047-48.089 23.125-71.173 34.619-8.444 64.246,46.677v36.75l-60.943,44.279zm-147.279-142.098l34.532-25.088 60.373,43.864-23.061,70.973h-43.79c-15.797-27.321-25.39-57.822-28.054-89.749zm63.536-103.252h76.702l24.202,30.843-23.421,72.083-35.102,8.562-63.019-45.786 20.638-65.702zm112.102-81.607h80.167l23.411,72.049-23.975,30.951h-79.149l-23.988-30.57 23.534-72.43zm192.038,81.607l20.852,65.713-63.11,45.853-34.883-8.299-23.564-72.524 23.815-30.743h76.89zm-151.954,151.23l-60.373-43.863 23.061-70.974h74.625l23.061,70.974-60.374,43.863zm165.152-206.33l-13.03,40.1h-74.624l-23.062-70.973 35.827-26.03c23.078,10.594 44.333,25.315 62.825,43.807 4.223,4.224 8.238,8.597 12.064,13.096zm-91.195-63.595l-30.402,22.088h-87.109l-30.402-22.088c23.392-8.482 48.333-12.912 73.956-12.912s50.564,4.43 73.957,12.912zm-227.046,50.5c18.492-18.492 39.747-33.213 62.825-43.807l35.827,26.03-23.062,70.973h-74.624l-13.029-40.1c3.826-4.499 7.841-8.873 12.063-13.096zm-23.203,27.351l10.786,33.198-22.74,72.396-28.25,20.524c0-0.127-0.005-0.254-0.005-0.381 0.001-45.73 14.095-89.288 40.209-125.737zm-1.856,248.844h38.052l64.104,50.498 10.692,32.907c-32.771-10.32-62.799-28.434-87.789-53.424-9.329-9.329-17.691-19.367-25.059-29.981zm130.138,88.08l-12.364-38.052 60.373-43.864 60.373,43.863-12.365,38.053c-15.574,3.509-31.652,5.313-48.007,5.313-16.356,0-32.434-1.804-48.01-5.313zm201.099-58.098c-24.99,24.99-55.019,43.104-87.79,53.424l10.736-33.04 65.035-50.366h37.078c-7.368,10.614-15.73,20.652-25.059,29.982z"/>
</svg>