<?xml version="1.0" standalone="no"?>
<!DOCTYPE svg PUBLIC "-//W3C//DTD SVG 20010904//EN"
 "http://www.w3.org/TR/2001/REC-SVG-20010904/DTD/svg10.dtd">
<svg version="1.0" xmlns="http://www.w3.org/2000/svg"
 width="1280.000000pt" height="640.000000pt" viewBox="0 0 1280.000000 640.000000"
 preserveAspectRatio="xMidYMid meet">
<g transform="translate(0.000000,640.000000) scale(0.100000,-0.100000)"
fill="#000000" stroke="none">
<path d="M11385 4960 c-156 -18 -273 -76 -390 -194 -128 -129 -187 -272 -187
-452 0 -166 60 -323 168 -442 30 -33 51 -63 46 -65 -4 -3 -37 1 -72 10 -88 21
-263 13 -343 -16 -106 -37 -180 -83 -258 -161 -135 -134 -191 -269 -191 -460
0 -97 4 -128 26 -195 36 -111 89 -195 172 -275 132 -125 272 -181 454 -181
184 1 333 64 468 199 45 46 87 80 92 77 6 -3 10 -17 10 -30 0 -12 -59 -216
-130 -452 -72 -235 -133 -436 -136 -445 -5 -17 16 -18 346 -18 278 0 351 3
347 12 -21 56 -267 880 -267 896 0 60 35 69 72 20 98 -129 242 -220 393 -249
75 -15 222 -12 290 6 185 49 341 173 424 339 35 70 81 237 81 296 0 58 -45
220 -79 287 -41 80 -62 108 -122 170 -70 71 -143 118 -242 156 -78 29 -89 31
-222 31 -115 0 -150 -4 -198 -21 -31 -11 -60 -17 -62 -13 -3 4 21 35 53 67
115 120 171 249 179 415 7 138 -7 209 -64 328 -118 247 -383 391 -658 360z"/>
<path d="M7950 4889 c-198 -229 -496 -620 -672 -879 -250 -368 -386 -616 -465
-850 -45 -133 -56 -289 -28 -385 52 -181 174 -311 349 -373 145 -51 331 -29
461 56 107 70 205 196 229 295 7 30 47 77 66 77 6 0 22 -11 36 -25 24 -24 25
-30 19 -88 -10 -90 -30 -181 -60 -272 -35 -107 -169 -378 -244 -493 -34 -51
-61 -95 -61 -98 0 -2 196 -4 435 -4 239 0 435 2 435 4 0 3 -27 47 -61 98 -79
122 -210 389 -249 508 -35 107 -65 278 -56 315 4 14 17 32 31 41 23 15 27 15
49 1 13 -9 30 -33 36 -54 56 -173 197 -314 365 -365 101 -32 235 -30 331 4
280 99 418 368 344 674 -82 342 -428 905 -977 1589 -88 110 -180 222 -205 249
l-44 49 -64 -74z"/>
<path d="M1297 4888 c-155 -350 -741 -1136 -1181 -1585 l-100 -102 120 -127
c466 -497 928 -1112 1126 -1499 l62 -120 19 45 c149 345 791 1206 1201 1610
42 41 76 79 76 83 0 5 -57 71 -128 146 -456 487 -911 1092 -1109 1479 l-63
122 -23 -52z"/>
<path d="M3963 4840 c-262 -69 -426 -264 -485 -580 -28 -148 -20 -412 16 -585
80 -382 225 -688 478 -1008 44 -56 210 -230 367 -388 272 -270 356 -366 397
-451 10 -21 20 -38 23 -38 3 0 17 21 31 46 47 90 122 175 398 450 154 153 317
326 362 384 247 312 400 631 475 992 35 164 45 437 21 578 -50 307 -197 502
-441 587 -69 23 -95 27 -190 27 -96 0 -119 -3 -179 -27 -132 -52 -297 -182
-430 -337 l-46 -55 -42 50 c-114 137 -281 277 -391 325 -118 52 -240 62 -364
30z"/>
</g>
</svg>
